<svg id="svg" version="1.1" xmlns="http://www.w3.org/2000/svg" xmlns:xlink="http://www.w3.org/1999/xlink" width="400" height="400" viewBox="0, 0, 400,400"><g id="svgg"><path id="path0" d="M260.638 75.822 C 247.750 77.321,242.578 80.176,242.578 85.793 C 242.578 91.180,247.643 93.895,253.747 91.778 C 270.145 86.093,292.671 92.425,306.641 106.646 C 327.558 127.939,329.467 160.261,311.201 183.865 C 306.863 189.472,306.614 192.760,310.285 195.983 C 314.592 199.765,318.456 198.079,323.958 190.016 C 340.007 166.497,342.207 140.735,330.294 115.820 C 317.655 89.389,288.405 72.593,260.638 75.822 M186.289 92.005 C 183.184 92.977,181.311 95.426,179.394 101.024 C 164.132 145.577,137.502 176.285,96.191 196.967 C 83.062 203.540,82.944 204.659,93.159 225.781 C 96.328 232.334,101.162 242.354,103.901 248.048 C 113.908 268.850,114.432 269.742,117.787 271.708 C 121.814 274.068,124.408 273.506,133.411 268.325 C 180.054 241.483,213.959 235.911,252.855 248.696 C 263.568 252.217,269.531 249.753,269.531 241.805 C 269.531 238.961,270.450 240.867,253.713 208.984 C 241.469 185.660,238.672 180.254,238.672 179.915 C 238.672 179.815,239.595 180.342,240.723 181.088 C 245.382 184.166,253.310 185.505,259.322 184.228 C 285.145 178.743,283.284 139.802,256.950 134.581 C 242.201 131.657,230.639 139.788,228.084 154.881 L 227.621 157.613 225.770 153.904 C 214.341 131.007,196.285 95.974,195.318 94.818 C 193.038 92.095,189.512 90.997,186.289 92.005 M259.375 106.498 C 256.281 106.948,252.187 108.041,250.933 108.751 C 242.637 113.453,248.066 124.856,257.080 121.659 C 268.853 117.484,284.154 125.093,290.121 138.090 C 295.039 148.800,292.976 163.933,285.437 172.461 C 280.282 178.292,282.506 185.530,289.453 185.530 C 296.363 185.530,305.574 169.734,307.061 155.333 C 309.853 128.306,284.929 102.783,259.375 106.498 M257.202 147.605 C 270.006 153.269,266.985 172.187,253.153 172.958 C 242.399 173.558,235.484 161.544,241.359 152.467 C 244.773 147.194,251.562 145.110,257.202 147.605 M69.486 213.476 C 54.582 221.239,50.334 245.848,61.041 262.399 C 69.922 276.129,90.665 284.302,101.944 278.517 C 106.874 275.987,106.889 276.060,97.538 256.641 C 93.142 247.510,86.813 234.326,83.475 227.344 C 80.137 220.361,76.972 214.165,76.443 213.574 C 75.151 212.132,72.146 212.090,69.486 213.476 M151.172 267.353 C 128.977 279.028,128.641 279.260,129.015 282.675 C 129.232 284.663,148.595 318.123,150.811 320.341 C 156.944 326.479,166.301 324.199,181.497 312.867 C 185.077 310.198,186.471 305.617,184.977 301.429 C 184.123 299.033,165.147 264.476,164.003 263.234 C 162.438 261.534,161.908 261.705,151.172 267.353 M221.191 380.347 C 221.567 380.446,222.183 380.446,222.559 380.347 C 222.935 380.249,222.627 380.169,221.875 380.169 C 221.123 380.169,220.815 380.249,221.191 380.347 M181.152 380.744 C 181.636 380.838,182.427 380.838,182.910 380.744 C 183.394 380.651,182.998 380.575,182.031 380.575 C 181.064 380.575,180.669 380.651,181.152 380.744 M217.876 380.745 C 218.362 380.838,219.065 380.835,219.438 380.737 C 219.812 380.639,219.414 380.563,218.555 380.567 C 217.695 380.572,217.390 380.652,217.876 380.745 M185.645 381.139 C 186.235 381.229,187.202 381.229,187.793 381.139 C 188.384 381.050,187.900 380.976,186.719 380.976 C 185.537 380.976,185.054 381.050,185.645 381.139 M212.598 381.139 C 213.188 381.229,214.155 381.229,214.746 381.139 C 215.337 381.050,214.854 380.976,213.672 380.976 C 212.490 380.976,212.007 381.050,212.598 381.139 M192.494 381.538 C 193.629 381.618,195.387 381.617,196.400 381.537 C 197.413 381.456,196.484 381.392,194.336 381.393 C 192.188 381.394,191.358 381.459,192.494 381.538 M204.018 381.539 C 205.261 381.617,207.195 381.616,208.315 381.537 C 209.435 381.459,208.418 381.395,206.055 381.396 C 203.691 381.397,202.775 381.461,204.018 381.539 " stroke="none" fill="#fbfbfb" fill-rule="evenodd"></path><path id="path1" d="M191.602 15.868 C 105.980 20.557,38.477 77.401,19.982 160.387 C 16.854 174.422,15.836 183.892,15.848 198.828 C 15.898 258.570,43.557 312.878,91.293 346.960 C 98.982 352.450,106.536 357.137,107.137 356.791 C 107.401 356.640,107.486 356.660,107.326 356.837 C 106.927 357.277,109.306 358.677,109.887 358.344 C 110.142 358.198,110.218 358.225,110.054 358.406 C 109.678 358.820,114.428 361.390,114.961 361.060 C 115.178 360.926,115.246 360.994,115.112 361.211 C 114.863 361.613,116.742 362.685,117.089 362.338 C 117.194 362.233,117.537 362.403,117.851 362.718 C 118.165 363.032,118.584 363.189,118.781 363.066 C 118.979 362.944,119.141 363.002,119.141 363.195 C 119.141 363.707,121.079 364.509,121.574 364.202 C 121.844 364.035,121.881 364.128,121.676 364.459 C 121.442 364.838,121.536 364.908,122.027 364.719 C 122.395 364.578,122.601 364.617,122.483 364.807 C 122.226 365.224,123.362 365.718,123.863 365.408 C 124.059 365.287,124.219 365.393,124.219 365.644 C 124.219 365.895,124.491 365.995,124.825 365.867 C 125.158 365.739,125.335 365.789,125.218 365.979 C 124.960 366.396,126.096 366.890,126.598 366.580 C 126.793 366.459,126.953 366.565,126.953 366.816 C 126.953 367.067,127.225 367.167,127.559 367.038 C 127.893 366.911,128.070 366.961,127.952 367.151 C 127.659 367.626,128.761 368.000,129.556 367.695 C 129.964 367.538,130.110 367.601,129.949 367.861 C 129.620 368.393,130.659 368.802,131.509 368.476 C 131.917 368.320,132.064 368.382,131.902 368.643 C 131.574 369.175,132.612 369.584,133.463 369.257 C 133.925 369.080,134.023 369.152,133.804 369.507 C 133.573 369.880,133.716 369.936,134.375 369.727 C 134.927 369.551,135.164 369.593,135.012 369.839 C 134.696 370.351,135.756 370.748,136.588 370.429 C 137.050 370.252,137.148 370.324,136.929 370.679 C 136.698 371.052,136.841 371.107,137.500 370.898 C 138.139 370.696,138.299 370.749,138.086 371.094 C 137.873 371.438,138.033 371.492,138.672 371.289 C 139.310 371.086,139.471 371.140,139.258 371.484 C 139.045 371.829,139.205 371.882,139.844 371.680 C 140.482 371.477,140.643 371.530,140.430 371.875 C 140.217 372.220,140.377 372.273,141.016 372.070 C 141.654 371.868,141.814 371.921,141.602 372.266 C 141.389 372.610,141.549 372.664,142.187 372.461 C 142.826 372.258,142.986 372.312,142.773 372.656 C 142.561 373.001,142.721 373.054,143.359 372.852 C 143.998 372.649,144.158 372.702,143.945 373.047 C 143.732 373.391,143.893 373.445,144.531 373.242 C 145.082 373.067,145.320 373.109,145.169 373.354 C 144.861 373.852,146.595 374.302,147.494 373.957 C 147.927 373.791,148.081 373.847,147.918 374.111 C 147.598 374.630,149.303 375.093,150.228 374.738 C 150.727 374.547,150.824 374.614,150.592 374.991 C 150.346 375.388,150.516 375.444,151.342 375.237 C 151.963 375.081,152.316 375.119,152.187 375.329 C 151.871 375.839,156.826 377.012,158.112 376.732 C 158.967 376.546,159.063 376.588,158.594 376.945 C 158.134 377.295,158.302 377.339,159.375 377.148 C 160.445 376.959,160.615 377.002,160.156 377.349 C 159.701 377.694,159.919 377.740,161.133 377.554 C 162.331 377.371,162.559 377.416,162.109 377.749 C 161.660 378.082,161.888 378.128,163.086 377.944 C 164.273 377.763,164.507 377.808,164.063 378.134 C 163.619 378.458,163.903 378.509,165.234 378.345 C 166.553 378.182,166.797 378.225,166.211 378.516 C 165.625 378.807,165.869 378.849,167.188 378.687 C 168.537 378.520,168.809 378.571,168.359 378.906 C 167.910 379.241,168.182 379.293,169.531 379.126 C 170.850 378.963,171.094 379.006,170.508 379.297 C 169.932 379.583,170.291 379.634,171.875 379.492 C 173.439 379.352,173.811 379.404,173.242 379.681 C 172.672 379.960,172.990 380.005,174.414 379.847 C 175.917 379.682,176.232 379.734,175.781 380.073 C 175.332 380.411,175.697 380.464,177.344 380.298 C 178.882 380.143,179.270 380.189,178.711 380.460 C 178.160 380.728,178.792 380.789,180.859 380.670 C 182.960 380.549,183.458 380.599,182.617 380.848 C 181.801 381.089,182.573 381.152,185.156 381.054 C 187.768 380.954,188.404 381.007,187.305 381.231 C 186.304 381.435,187.921 381.513,191.797 381.447 C 195.864 381.377,196.954 381.433,195.117 381.617 C 193.279 381.801,195.009 381.890,200.391 381.888 C 206.123 381.886,207.510 381.809,205.273 381.615 C 203.034 381.421,203.920 381.371,208.398 381.440 C 212.290 381.499,214.059 381.418,213.086 381.224 C 212.022 381.012,212.706 380.960,215.234 381.061 C 217.809 381.164,218.646 381.099,217.969 380.847 C 217.261 380.584,217.690 380.533,219.531 380.660 C 221.354 380.787,221.850 380.729,221.289 380.455 C 220.726 380.180,221.164 380.127,222.852 380.265 C 224.544 380.403,224.978 380.349,224.414 380.073 C 223.850 379.797,224.231 379.751,225.781 379.907 C 227.416 380.072,227.790 380.019,227.344 379.687 C 226.896 379.354,227.172 379.308,228.516 379.492 C 229.860 379.677,230.136 379.631,229.688 379.297 C 229.239 378.963,229.515 378.917,230.859 379.102 C 232.204 379.286,232.479 379.240,232.031 378.906 C 231.581 378.571,231.854 378.520,233.203 378.687 C 234.522 378.849,234.766 378.807,234.180 378.516 C 233.594 378.225,233.838 378.182,235.156 378.345 C 236.488 378.509,236.772 378.458,236.328 378.134 C 235.881 377.807,236.113 377.756,237.305 377.919 C 238.526 378.087,238.697 378.046,238.086 377.734 C 237.475 377.422,237.646 377.382,238.867 377.549 C 240.074 377.715,240.296 377.664,239.844 377.327 C 239.377 376.979,239.469 376.936,240.294 377.115 C 241.741 377.429,243.979 376.958,243.293 376.484 C 242.958 376.252,243.258 376.211,244.141 376.367 C 245.202 376.556,245.377 376.512,244.922 376.172 C 244.467 375.832,244.642 375.788,245.703 375.977 C 246.776 376.167,246.944 376.123,246.484 375.773 C 246.018 375.418,246.124 375.377,247.005 375.570 C 247.749 375.733,248.027 375.674,247.852 375.391 C 247.675 375.105,247.937 375.056,248.658 375.237 C 249.479 375.443,249.653 375.387,249.412 374.997 C 249.203 374.658,249.251 374.583,249.559 374.773 C 250.208 375.175,252.404 374.633,252.103 374.145 C 251.944 373.888,252.171 373.845,252.734 374.023 C 253.393 374.232,253.536 374.177,253.305 373.804 C 253.083 373.444,253.187 373.378,253.678 373.566 C 254.502 373.882,256.322 373.480,256.051 373.042 C 255.945 372.870,256.238 372.828,256.701 372.950 C 257.241 373.091,257.452 373.021,257.287 372.754 C 257.122 372.488,257.333 372.418,257.873 372.559 C 258.487 372.719,258.633 372.645,258.411 372.285 C 258.183 371.917,258.330 371.862,258.984 372.070 C 259.542 372.247,259.774 372.204,259.619 371.953 C 259.469 371.710,259.700 371.642,260.217 371.778 C 260.845 371.942,260.979 371.867,260.743 371.486 C 260.532 371.145,260.578 371.067,260.881 371.254 C 261.507 371.641,262.960 371.131,262.652 370.633 C 262.491 370.372,262.714 370.328,263.281 370.508 C 263.839 370.685,264.071 370.642,263.916 370.391 C 263.765 370.148,263.997 370.080,264.514 370.215 C 265.087 370.365,265.268 370.292,265.080 369.988 C 264.900 369.698,265.016 369.622,265.409 369.773 C 265.743 369.901,266.016 369.816,266.016 369.585 C 266.016 369.354,266.308 369.277,266.666 369.415 C 267.138 369.596,267.228 369.522,266.996 369.147 C 266.782 368.801,266.827 368.723,267.131 368.910 C 267.724 369.277,269.218 368.800,268.931 368.336 C 268.809 368.139,268.982 368.082,269.316 368.210 C 269.649 368.338,269.922 368.254,269.922 368.023 C 269.922 367.791,270.214 367.715,270.572 367.852 C 271.006 368.019,271.129 367.951,270.942 367.649 C 270.760 367.353,270.873 367.277,271.269 367.429 C 271.603 367.557,271.875 367.457,271.875 367.206 C 271.875 366.956,272.035 366.850,272.230 366.970 C 272.732 367.281,273.868 366.786,273.610 366.370 C 273.493 366.180,273.670 366.129,274.003 366.257 C 274.337 366.385,274.609 366.286,274.609 366.034 C 274.609 365.784,274.769 365.678,274.965 365.799 C 275.467 366.109,276.602 365.614,276.345 365.198 C 276.227 365.008,276.433 364.968,276.802 365.110 C 277.292 365.298,277.386 365.229,277.152 364.850 C 276.944 364.513,276.984 364.426,277.265 364.600 C 277.776 364.916,288.672 359.549,288.672 358.982 C 288.672 358.768,288.804 358.629,288.965 358.671 C 289.626 358.846,291.009 358.118,290.766 357.724 C 290.616 357.481,290.685 357.413,290.930 357.564 C 291.776 358.087,305.672 349.036,313.788 342.675 C 414.026 264.109,404.299 107.629,295.117 42.299 C 263.904 23.623,226.129 13.978,191.602 15.868 M273.746 75.807 C 323.227 81.244,352.190 134.174,330.267 179.102 C 322.300 195.428,315.855 200.873,310.285 195.983 C 306.614 192.760,306.863 189.472,311.201 183.865 C 329.467 160.261,327.558 127.939,306.641 106.646 C 292.671 92.425,270.145 86.093,253.747 91.778 C 246.368 94.336,240.381 89.217,243.111 82.684 C 245.188 77.712,260.270 74.327,273.746 75.807 M192.649 92.619 C 195.338 93.982,202.166 106.617,225.770 153.904 L 227.621 157.613 228.084 154.881 C 230.639 139.788,242.201 131.657,256.950 134.581 C 283.284 139.802,285.145 178.743,259.322 184.228 C 253.310 185.505,245.382 184.166,240.723 181.088 C 239.595 180.342,238.672 179.815,238.672 179.915 C 238.672 180.254,241.469 185.660,253.713 208.984 C 270.450 240.867,269.531 238.961,269.531 241.805 C 269.531 249.753,263.568 252.217,252.855 248.696 C 213.959 235.911,180.054 241.483,133.411 268.325 C 124.408 273.506,121.814 274.068,117.787 271.708 C 114.432 269.742,113.908 268.850,103.901 248.048 C 101.162 242.354,96.328 232.334,93.159 225.781 C 82.944 204.659,83.062 203.540,96.191 196.967 C 137.502 176.285,164.132 145.577,179.394 101.024 C 182.288 92.576,186.852 89.682,192.649 92.619 M268.580 106.669 C 299.295 110.941,316.177 143.752,302.231 172.070 C 296.887 182.921,291.654 187.150,286.478 184.800 C 281.526 182.551,281.089 177.379,285.437 172.461 C 292.976 163.933,295.039 148.800,290.121 138.090 C 284.154 125.093,268.853 117.484,257.080 121.659 C 251.228 123.735,246.197 119.911,246.991 113.992 C 247.431 110.713,250.374 108.363,255.388 107.286 C 260.666 106.154,263.816 106.006,268.580 106.669 M248.164 147.188 C 240.396 149.963,237.090 158.024,240.656 165.495 C 245.383 175.400,259.281 175.591,264.093 165.817 C 269.117 155.612,258.696 143.425,248.164 147.188 M76.443 213.574 C 76.972 214.165,80.137 220.361,83.475 227.344 C 86.813 234.326,93.142 247.510,97.538 256.641 C 104.404 270.898,105.502 273.429,105.321 274.568 C 104.260 281.213,88.339 282.072,76.425 276.126 C 55.486 265.678,48.369 239.312,61.515 220.890 C 66.497 213.909,73.617 210.420,76.443 213.574 M164.003 263.234 C 165.147 264.476,184.123 299.033,184.977 301.429 C 186.471 305.617,185.077 310.198,181.497 312.867 C 166.301 324.199,156.944 326.479,150.811 320.341 C 148.595 318.123,129.232 284.663,129.015 282.675 C 128.641 279.260,128.977 279.028,151.172 267.353 C 161.908 261.705,162.438 261.534,164.003 263.234 " stroke="none" fill="#04163d" fill-rule="evenodd"></path></g></svg>